<?xml version="1.0" encoding="iso-8859-1"?>
<!-- Generator: Adobe Illustrator 19.0.0, SVG Export Plug-In . SVG Version: 6.00 Build 0)  -->
<svg version="1.1" id="Layer_1" xmlns="http://www.w3.org/2000/svg" xmlns:xlink="http://www.w3.org/1999/xlink" x="0px" y="0px"
	 viewBox="0 0 512 512" style="enable-background:new 0 0 512 512;" xml:space="preserve">
<path style="fill:#29B4D5;" d="M257.568,101.234l-2.215,2.214L34.093,324.709c-7.574,7.574-7.58,19.856-0.006,27.43l82.277,82.277
	c7.574,7.574,19.865,7.575,27.437,0.001l111.553-111.553l111.922-111.922c23.465-23.465,23.467-61.661,0.001-85.126l-24.592-24.592
	C319.22,77.758,281.034,77.767,257.568,101.234z"/>
<path style="fill:#4DD1E8;" d="M257.568,101.234l-2.215,2.214l-39.332,39.332l39.331,39.331l70.377,70.377l41.546-41.546
	c23.465-23.465,23.467-61.661,0.001-85.126l-24.59-24.592C319.22,77.758,281.034,77.767,257.568,101.234z"/>
<path style="fill:#6A81B5;" d="M34.093,324.709c-7.574,7.574-7.58,19.856-0.006,27.43l82.277,82.277
	c7.574,7.574,19.865,7.575,27.437,0.001l98.733-98.733L132.825,225.974L34.093,324.709z"/>
<path style="fill:#F66131;" d="M451.805,298.667H135.764c-10.711,0-19.4,8.679-19.4,19.391v116.358
	c0,10.709,8.69,19.402,19.4,19.402h316.041c33.186,0,60.195-27.007,60.195-60.192v-34.78
	C512,325.662,484.991,298.667,451.805,298.667z"/>
<path style="fill:#C61623;" d="M135.764,298.667c-10.711,0-19.4,8.679-19.4,19.391v116.358c0,10.709,8.69,19.402,19.4,19.402h139.63
	V298.667H135.764z"/>
<path style="fill:#FFCC73;" d="M451.805,298.667h-58.755v155.152h58.755c33.186,0,60.195-27.007,60.195-60.192v-34.78
	C512,325.662,484.991,298.667,451.805,298.667z"/>
<path style="fill:#E6E6E6;" d="M94.975,58.182h-34.78C27.009,58.182,0,85.189,0,118.374v316.041
	c0,10.711,8.695,19.403,19.406,19.403h116.358c10.711,0,19.387-8.692,19.387-19.403V118.374
	C155.152,85.189,128.16,58.182,94.975,58.182z"/>
<path style="fill:#CFCFCF;" d="M94.975,58.182H76.958v395.636h58.806c10.711,0,19.387-8.692,19.387-19.403V118.374
	C155.152,85.189,128.16,58.182,94.975,58.182z"/>
<circle style="fill:#263B74;" cx="77.179" cy="376.773" r="19.394"/>
<g>
</g>
<g>
</g>
<g>
</g>
<g>
</g>
<g>
</g>
<g>
</g>
<g>
</g>
<g>
</g>
<g>
</g>
<g>
</g>
<g>
</g>
<g>
</g>
<g>
</g>
<g>
</g>
<g>
</g>
</svg>
